<svg width="40" height="40" viewBox="0 0 40 40" fill="none" xmlns="http://www.w3.org/2000/svg">
<path fill-rule="evenodd" clip-rule="evenodd" d="M20 40C31.0457 40 40 31.0457 40 20C40 8.9543 31.0457 0 20 0C8.9543 0 0 8.9543 0 20C0 31.0457 8.9543 40 20 40ZM11.1708 14.9762L28.3827 15.1115L28.5062 30.8222C28.5206 32.6523 27.2249 33.9273 25.3536 33.9126L14.5061 33.8171C12.6349 33.8023 11.3087 32.5171 11.2944 30.6869L11.1708 14.9762ZM15.9963 6.27502L23.4302 6.34378C26.5249 6.35777 28.3376 8.06847 28.3709 10.9989L28.3774 13.1272L11.1553 13.0021L11.1487 10.8532C11.1258 7.93321 12.912 6.27142 15.9963 6.27502Z" fill="white" fill-opacity="0.85"/>
</svg>
