<svg xmlns="http://www.w3.org/2000/svg" xmlns:xlink="http://www.w3.org/1999/xlink" width="768" zoomAndPan="magnify" viewBox="0 0 576 767.999994" height="1024" preserveAspectRatio="xMidYMid meet" version="1.0"><defs><clipPath id="91d8ba3500"><path d="M 63 2 L 512.878906 2 L 512.878906 768 L 63 768 Z M 63 2 " clip-rule="nonzero"/></clipPath></defs><g clip-path="url(#91d8ba3500)"><path fill="#c8b288" d="M 435.21875 755.746094 C 435.378906 755.4375 435.570312 755.140625 435.796875 754.863281 C 453.609375 733.296875 500.191406 671.945312 501.851562 647.363281 C 503.414062 624.117188 459.710938 545.308594 438.804688 510.183594 C 437.222656 511.789062 435.625 513.367188 433.976562 514.90625 L 433.617188 515.207031 L 406.84375 535.941406 C 406.160156 536.472656 405.386719 536.796875 404.589844 536.929688 C 399.457031 548.558594 394.023438 558.808594 388.324219 567.703125 C 388.34375 568.164062 388.3125 568.640625 388.191406 569.113281 C 388.113281 569.40625 380.578125 599.078125 378.628906 634.558594 C 376.863281 666.734375 379.441406 710.433594 401.734375 735.878906 L 401.953125 736.125 L 402.140625 736.402344 C 402.175781 736.46875 407.925781 744.734375 420.917969 750.894531 C 425.363281 753.003906 430.144531 754.617188 435.21875 755.746094 Z M 397.789062 527.039062 C 409.203125 499.679688 418.746094 465.5 424.660156 430.800781 C 433.828125 377.011719 427.382812 336.191406 413.273438 304.859375 C 379.253906 300.148438 349.382812 292.894531 324.484375 283.285156 C 303.859375 275.324219 286.535156 265.730469 272.980469 254.757812 C 257.925781 242.566406 250.777344 231.28125 247.515625 224.46875 C 238.449219 230.621094 228.792969 237.753906 218.628906 246.066406 C 154.574219 298.53125 135.832031 378.648438 139.246094 431.328125 C 141.234375 462.023438 150.097656 496.976562 163.558594 527.210938 C 177.753906 559.101562 195.515625 582.550781 213.574219 593.25 C 246.40625 612.695312 272.546875 617.011719 279.777344 617.871094 C 281.203125 618.039062 282.644531 618.039062 284.070312 617.871094 C 291.304688 617.011719 317.441406 612.695312 350.269531 593.25 C 367.558594 583.007812 383.992188 560.109375 397.789062 527.039062 Z M 150.503906 522.421875 C 138.707031 493.296875 130.980469 460.847656 129.109375 431.980469 C 126.964844 398.898438 133.039062 362.554688 146.214844 329.652344 C 160.796875 293.230469 183.617188 261.609375 212.195312 238.203125 C 242.34375 213.519531 268.214844 198.773438 287.050781 190.085938 C 290.453125 184.183594 290.894531 180.632812 290.070312 179.285156 C 288.980469 177.503906 284.625 177.066406 282.449219 177.222656 C 229.199219 184.105469 171.570312 234.472656 170.996094 234.984375 L 170.851562 235.105469 C 87.371094 303.371094 86.609375 423.785156 95.746094 457.601562 C 102.5625 482.847656 132.171875 508.515625 150.503906 522.421875 Z M 145.707031 244.695312 C 149.449219 240.726562 153.417969 236.855469 157.617188 233.082031 C 157.671875 232.777344 157.746094 232.464844 157.855469 232.160156 C 167.921875 204.886719 188.074219 176.25 213.15625 153.605469 C 238.574219 130.652344 265.335938 117.28125 286.589844 116.933594 C 305.574219 116.621094 319.605469 126.269531 327.167969 144.855469 C 330.917969 154.066406 331.726562 163.835938 329.636719 173.984375 L 335.226562 171.34375 C 344.144531 167.121094 350.878906 159.234375 353.683594 149.710938 C 366.75 105.398438 364.355469 74.691406 346.765625 60.914062 C 328.171875 46.347656 292.371094 51.488281 253.332031 74.324219 C 220.667969 93.433594 188.1875 123.527344 167.5 158.996094 C 167.273438 159.851562 166.832031 160.628906 166.195312 161.265625 C 151.625 187.035156 143.34375 215.550781 145.707031 244.695312 Z M 163.746094 146.078125 C 164.117188 145.5 164.480469 144.925781 164.859375 144.351562 C 185.179688 113.371094 215.558594 84.648438 248.207031 65.550781 C 268.285156 53.804688 288.246094 46.21875 305.945312 43.597656 C 325.316406 40.734375 341.59375 43.957031 353.03125 52.914062 C 363.324219 60.976562 369.523438 73.3125 371.453125 89.5625 C 372.910156 101.789062 371.882812 116.265625 368.453125 132.726562 C 372.140625 127.53125 375.933594 121.175781 378.886719 113.90625 C 389.976562 86.617188 384.566406 59.664062 362.808594 33.792969 C 345.261719 13.632812 318.773438 11.167969 299.636719 12.65625 C 274.433594 14.609375 245.894531 24.828125 221.351562 40.695312 C 198.5 55.464844 180.402344 74.210938 170.390625 93.46875 C 161.152344 111.253906 158.929688 129.246094 163.746094 146.078125 Z M 360.910156 159.175781 C 356.488281 168.488281 348.972656 176.078125 339.566406 180.53125 L 330.90625 184.632812 C 336.554688 188.796875 342.910156 193.070312 350.820312 197.28125 C 392.816406 219.664062 456.28125 253.488281 477.742188 327.09375 C 479.320312 332.5 480.667969 337.914062 481.835938 343.3125 C 481.605469 296.347656 464.113281 253.121094 429.507812 214.351562 C 402.386719 183.960938 372.386719 165.589844 360.910156 159.175781 Z M 256.097656 218.8125 C 258.441406 224.128906 264.78125 235.296875 280.359375 247.644531 C 299.707031 262.984375 337.386719 283.117188 407.777344 293.792969 C 381.6875 245.988281 337.507812 222.714844 310.605469 208.550781 C 302.78125 204.429688 297.03125 201.398438 293.183594 198.558594 C 283 203.148438 270.441406 209.671875 256.097656 218.8125 Z M 317.753906 148.691406 C 311.828125 134.117188 301.417969 126.859375 286.757812 127.09375 C 267.925781 127.40625 243.582031 139.820312 219.960938 161.152344 C 201.304688 178.003906 185.558594 198.25 175.015625 218.59375 C 181.453125 213.585938 190.472656 206.953125 201.25 200.050781 C 230.605469 181.246094 257.535156 170.167969 281.28125 167.128906 L 281.464844 167.109375 C 282.730469 166.992188 293.933594 166.21875 298.703125 173.925781 C 300.542969 176.90625 301.046875 180.410156 300.222656 184.492188 C 308.75 181.195312 314.769531 179.535156 317.761719 178.8125 C 321.59375 167.972656 321.59375 158.121094 317.753906 148.691406 Z M 467.988281 329.941406 C 447.726562 260.441406 388.960938 229.121094 346.042969 206.253906 C 335.003906 200.371094 326.878906 194.457031 319.617188 188.839844 C 316.933594 189.535156 311.8125 191.011719 304.628906 193.765625 C 307.929688 195.648438 311.828125 197.707031 315.339844 199.558594 C 337.339844 211.144531 374.160156 230.535156 401.722656 266.339844 C 409.257812 276.140625 415.648438 286.589844 420.910156 297.671875 C 421.042969 297.898438 421.148438 298.144531 421.246094 298.398438 C 438.921875 336.078125 443.457031 381.011719 434.679688 432.507812 C 429.449219 463.179688 421.417969 493.488281 411.773438 519.269531 L 427.21875 507.3125 C 472.722656 464.757812 487.964844 398.472656 467.988281 329.941406 Z M 476.675781 717.667969 C 464.507812 735.078125 452.371094 750.492188 446.792969 757.433594 C 458.632812 758.324219 471.6875 756.917969 485.554688 753.191406 C 488.261719 752.464844 491.050781 754.074219 491.773438 756.78125 C 492.503906 759.496094 490.898438 762.285156 488.183594 763.011719 C 475.207031 766.5 463.777344 767.867188 453.851562 767.867188 C 437.03125 767.867188 424.492188 763.945312 415.890625 759.753906 C 402.015625 752.992188 395.207031 744.175781 393.914062 742.371094 C 383.046875 729.875 375.503906 712.777344 371.484375 691.535156 C 368.308594 674.769531 367.300781 655.351562 368.492188 633.820312 C 369.523438 615.269531 371.972656 598.515625 374.179688 586.359375 C 368.171875 592.914062 361.925781 598.160156 355.445312 601.996094 C 321.847656 621.902344 295.171875 626.785156 285.269531 627.964844 C 284.160156 628.089844 283.042969 628.164062 281.921875 628.164062 C 280.808594 628.164062 279.6875 628.089844 278.578125 627.964844 C 268.667969 626.785156 242 621.902344 208.402344 601.996094 C 202.082031 598.257812 195.832031 593.148438 189.757812 586.863281 C 191.65625 597.449219 193.730469 611.425781 194.90625 627.003906 C 198.308594 672.230469 192.585938 707.371094 177.894531 731.445312 C 173.121094 739.265625 166.296875 745.921875 158.15625 750.691406 C 146.550781 757.488281 125.558594 766.847656 97.980469 766.847656 C 88.484375 766.847656 78.214844 765.738281 67.273438 763.035156 C 64.550781 762.363281 62.890625 759.605469 63.5625 756.882812 C 64.238281 754.15625 66.988281 752.496094 69.714844 753.167969 C 79.785156 755.65625 89.246094 756.679688 97.96875 756.679688 C 123.234375 756.679688 142.417969 748.132812 153.027344 741.917969 C 159.71875 737.996094 165.320312 732.542969 169.222656 726.152344 C 200.242188 675.3125 178.242188 579.777344 175.859375 569.925781 C 169.796875 561.367188 164.039062 551.574219 158.710938 540.757812 C 149.785156 534.902344 96.261719 498.457031 85.9375 460.25 C 80.597656 440.503906 79.160156 399.792969 88.605469 357.058594 C 95.097656 327.675781 108.609375 288.949219 136.6875 254.898438 C 136.675781 254.84375 136.652344 254.789062 136.648438 254.730469 C 131.832031 223.207031 138.851562 189.8125 156.96875 157.359375 C 147.84375 135.617188 149.324219 111.96875 161.378906 88.78125 C 172.1875 67.976562 191.527344 47.871094 215.839844 32.160156 C 242.140625 15.160156 271.621094 4.636719 298.851562 2.523438 C 329.640625 0.132812 354.414062 8.652344 370.5 27.148438 L 370.554688 27.214844 C 401.078125 63.488281 396.96875 96.660156 388.152344 118.101562 C 381.894531 133.304688 372.578125 144.679688 366.804688 150.800781 C 379.546875 157.964844 409.46875 176.636719 437.085938 207.578125 C 458.039062 231.058594 473.21875 256.714844 482.207031 283.84375 C 493.414062 317.679688 494.9375 353.839844 486.753906 391.308594 C 486.515625 406.367188 484.5625 421.089844 480.894531 435.175781 C 474.320312 460.441406 462.371094 483.386719 445.984375 502.40625 C 450.984375 510.792969 464.957031 534.53125 478.613281 560.550781 C 501.703125 604.550781 512.929688 633.988281 511.984375 648.046875 C 511.042969 662.089844 499.160156 685.515625 476.675781 717.667969 Z M 308.089844 551.027344 C 306.070312 549.785156 304.398438 548.4375 302.914062 547.226562 C 298.617188 543.71875 296.660156 542.121094 288.773438 545.679688 C 285.097656 547.339844 280.878906 547.339844 277.199219 545.679688 C 269.316406 542.121094 267.355469 543.71875 263.054688 547.226562 C 261.234375 548.714844 259.128906 550.402344 256.441406 551.847656 C 260.273438 556.074219 267.878906 561.324219 280.871094 558.574219 C 280.882812 558.570312 280.898438 558.570312 280.914062 558.570312 C 281.113281 558.527344 281.320312 558.519531 281.527344 558.503906 C 281.65625 558.492188 281.796875 558.464844 281.925781 558.464844 C 282.039062 558.464844 282.15625 558.492188 282.273438 558.496094 C 282.496094 558.515625 282.722656 558.527344 282.941406 558.570312 C 282.953125 558.570312 282.964844 558.570312 282.976562 558.574219 C 291.613281 560.402344 298.898438 559.019531 304.621094 554.457031 C 306.046875 553.316406 307.191406 552.113281 308.089844 551.027344 Z M 328.441406 549.410156 C 328.441406 552.214844 326.171875 554.484375 323.367188 554.484375 L 318.148438 554.484375 C 316.746094 556.648438 314.421875 559.636719 310.953125 562.398438 C 306.574219 565.894531 299.695312 569.515625 289.996094 569.515625 C 287.5 569.515625 284.804688 569.257812 281.921875 568.710938 C 279.046875 569.257812 276.347656 569.515625 273.851562 569.515625 C 264.152344 569.515625 257.265625 565.894531 252.894531 562.398438 C 249.425781 559.636719 247.101562 556.648438 245.699219 554.484375 L 240.480469 554.484375 C 237.675781 554.484375 235.398438 552.214844 235.398438 549.410156 C 235.398438 546.605469 237.675781 544.324219 240.480469 544.324219 L 247.84375 544.324219 C 247.875 544.324219 247.902344 544.339844 247.933594 544.339844 C 251.683594 543.367188 254.105469 541.414062 256.644531 539.34375 C 261.597656 535.304688 267.769531 530.273438 281.382812 536.417969 C 282.402344 536.882812 283.574219 536.882812 284.597656 536.417969 C 298.207031 530.273438 304.375 535.304688 309.332031 539.34375 C 311.863281 541.40625 314.28125 543.355469 318.007812 544.324219 L 323.367188 544.324219 C 326.171875 544.324219 328.441406 546.605469 328.441406 549.410156 Z M 254.722656 506.5 C 255.804688 506.777344 256.914062 506.921875 258.035156 506.921875 C 260.179688 506.921875 262.390625 506.398438 264.644531 505.375 C 268.664062 509.265625 274.851562 511.722656 281.921875 511.722656 C 288.996094 511.722656 295.179688 509.265625 299.199219 505.375 C 301.457031 506.398438 303.664062 506.921875 305.8125 506.921875 C 306.933594 506.921875 308.035156 506.777344 309.128906 506.5 C 315.148438 504.945312 317.800781 499.652344 318.082031 499.058594 L 308.898438 494.710938 L 308.941406 494.632812 C 308.929688 494.644531 308.023438 496.316406 306.53125 496.671875 C 305.824219 496.839844 304.933594 496.71875 303.921875 496.328125 C 303.992188 495.753906 304.027344 495.171875 304.027344 494.574219 C 304.027344 491.769531 301.753906 489.496094 298.949219 489.496094 C 296.144531 489.496094 293.875 491.769531 293.875 494.574219 C 293.875 497.882812 288.964844 501.5625 281.921875 501.5625 C 274.882812 501.5625 269.976562 497.882812 269.976562 494.574219 C 269.976562 491.769531 267.703125 489.496094 264.894531 489.496094 C 262.089844 489.496094 259.820312 491.769531 259.820312 494.574219 C 259.820312 495.171875 259.855469 495.753906 259.925781 496.328125 C 258.914062 496.71875 258.023438 496.839844 257.316406 496.671875 C 255.824219 496.316406 254.914062 494.644531 254.90625 494.632812 L 254.949219 494.710938 L 245.765625 499.058594 C 246.046875 499.652344 248.695312 504.945312 254.722656 506.5 Z M 238.257812 415.917969 C 237.28125 413.285156 234.351562 411.953125 231.726562 412.929688 C 231.300781 413.09375 188.792969 428.589844 174.632812 402.988281 C 173.277344 400.527344 170.1875 399.640625 167.730469 401.003906 C 165.273438 402.363281 164.386719 405.457031 165.746094 407.90625 C 165.914062 408.21875 166.105469 408.507812 166.285156 408.8125 C 163.996094 409.519531 161.191406 409.957031 158.496094 409.230469 C 155.789062 408.507812 153.003906 410.113281 152.277344 412.824219 C 151.554688 415.53125 153.160156 418.320312 155.867188 419.050781 C 157.730469 419.546875 159.582031 419.757812 161.367188 419.757812 C 165.960938 419.757812 170.113281 418.386719 172.941406 417.140625 C 173.683594 417.820312 174.457031 418.476562 175.253906 419.097656 C 172.996094 420.5 169.101562 421.957031 162.625 421.957031 C 159.816406 421.957031 157.542969 424.230469 157.542969 427.035156 C 157.542969 429.847656 159.816406 432.117188 162.625 432.117188 C 175.03125 432.117188 181.492188 427.839844 184.679688 424.445312 C 185.601562 424.8125 186.546875 425.148438 187.519531 425.460938 C 185.207031 428.324219 181.273438 431.652344 174.839844 433.136719 C 172.109375 433.773438 170.40625 436.5 171.035156 439.234375 C 171.582031 441.582031 173.671875 443.171875 175.980469 443.171875 C 176.363281 443.171875 176.746094 443.128906 177.128906 443.039062 C 189.453125 440.191406 195.578125 432.425781 198.277344 427.617188 C 199.960938 427.777344 201.707031 427.863281 203.492188 427.886719 C 201.898438 430.828125 199.429688 434.15625 195.703125 436.410156 C 193.300781 437.859375 192.53125 440.988281 193.984375 443.386719 C 194.941406 444.96875 196.613281 445.84375 198.332031 445.84375 C 199.230469 445.84375 200.136719 445.605469 200.957031 445.109375 C 209.242188 440.097656 213.195312 431.945312 214.878906 427.234375 C 216.707031 427.003906 218.46875 426.734375 220.132812 426.429688 C 219.320312 429.195312 217.820312 432.359375 215.046875 434.839844 C 212.957031 436.710938 212.769531 439.921875 214.640625 442.015625 C 215.648438 443.140625 217.035156 443.710938 218.433594 443.710938 C 219.636719 443.710938 220.847656 443.285156 221.8125 442.421875 C 228.425781 436.511719 230.414062 428.613281 231.003906 423.847656 C 233.542969 423.097656 235.113281 422.515625 235.285156 422.449219 C 237.914062 421.464844 239.238281 418.542969 238.257812 415.917969 Z M 171.660156 376.773438 C 189.394531 371.394531 205.199219 373.132812 218.628906 381.941406 C 228.761719 388.574219 233.792969 396.992188 233.902344 397.179688 C 234.84375 398.796875 236.550781 399.707031 238.300781 399.707031 C 239.160156 399.707031 240.03125 399.484375 240.832031 399.023438 C 243.261719 397.621094 244.097656 394.515625 242.691406 392.082031 C 242.453125 391.664062 236.640625 381.738281 224.617188 373.714844 C 213.515625 366.308594 194.796875 359.136719 168.71875 367.042969 C 166.035156 367.859375 164.511719 370.699219 165.328125 373.386719 C 166.140625 376.070312 168.976562 377.589844 171.660156 376.773438 Z M 389 433.136719 C 382.574219 431.652344 378.636719 428.324219 376.324219 425.460938 C 377.292969 425.148438 378.246094 424.8125 379.171875 424.445312 C 382.355469 427.839844 388.816406 432.117188 401.222656 432.117188 C 404.027344 432.117188 406.304688 429.847656 406.304688 427.035156 C 406.304688 424.230469 404.027344 421.957031 401.222656 421.957031 C 394.730469 421.957031 390.851562 420.515625 388.589844 419.097656 C 389.386719 418.476562 390.15625 417.820312 390.902344 417.140625 C 393.730469 418.386719 397.878906 419.757812 402.476562 419.757812 C 404.261719 419.757812 406.113281 419.546875 407.980469 419.050781 C 410.691406 418.320312 412.296875 415.53125 411.570312 412.824219 C 410.84375 410.113281 408.058594 408.507812 405.34375 409.230469 C 402.65625 409.957031 399.851562 409.519531 397.5625 408.8125 C 397.738281 408.507812 397.929688 408.21875 398.101562 407.90625 C 399.460938 405.457031 398.570312 402.363281 396.117188 401.003906 C 393.664062 399.640625 390.570312 400.527344 389.21875 402.988281 C 375.046875 428.589844 332.546875 413.09375 332.121094 412.929688 C 329.496094 411.949219 326.566406 413.285156 325.585938 415.910156 C 324.601562 418.535156 325.933594 421.464844 328.554688 422.449219 C 328.730469 422.515625 330.304688 423.097656 332.847656 423.847656 C 333.433594 428.613281 335.421875 436.511719 342.03125 442.421875 C 343 443.285156 344.210938 443.710938 345.414062 443.710938 C 346.8125 443.710938 348.203125 443.140625 349.207031 442.015625 C 351.070312 439.921875 350.890625 436.710938 348.800781 434.839844 C 346.027344 432.359375 344.527344 429.195312 343.714844 426.429688 C 345.378906 426.734375 347.140625 427.003906 348.96875 427.234375 C 350.652344 431.945312 354.601562 440.097656 362.890625 445.109375 C 363.710938 445.605469 364.617188 445.84375 365.511719 445.84375 C 367.230469 445.84375 368.90625 444.96875 369.867188 443.386719 C 371.316406 440.988281 370.542969 437.859375 368.144531 436.410156 C 364.417969 434.15625 361.953125 430.828125 360.359375 427.886719 C 362.144531 427.863281 363.886719 427.777344 365.570312 427.617188 C 368.273438 432.425781 374.394531 440.191406 386.71875 443.039062 C 387.101562 443.128906 387.484375 443.171875 387.863281 443.171875 C 390.175781 443.171875 392.265625 441.582031 392.8125 439.234375 C 393.441406 436.5 391.738281 433.773438 389 433.136719 Z M 321.152344 392.082031 C 321.398438 391.664062 327.203125 381.738281 339.226562 373.714844 C 350.335938 366.308594 369.042969 359.136719 395.128906 367.042969 C 397.816406 367.859375 399.332031 370.699219 398.515625 373.386719 C 397.707031 376.070312 394.867188 377.589844 392.183594 376.773438 C 374.453125 371.394531 358.648438 373.132812 345.21875 381.941406 C 335.027344 388.617188 329.996094 397.09375 329.945312 397.179688 C 329 398.796875 327.296875 399.695312 325.550781 399.695312 C 324.679688 399.695312 323.804688 399.472656 323.003906 399.011719 C 320.589844 397.601562 319.753906 394.511719 321.152344 392.082031 " fill-opacity="1" fill-rule="nonzero"/></g></svg>