<svg width="379" height="88" viewBox="0 0 379 88" fill="none" xmlns="http://www.w3.org/2000/svg">
<path d="M0.667175 85.5V84.2917L2.47968 83.8125C4.07342 83.3438 5.17238 82.625 5.77134 81.6667C6.36509 80.7084 6.66718 79.4688 6.66718 77.9375V40.375C6.66718 38.625 6.36509 37.3334 5.77134 36.5C5.17238 35.6563 4.07342 35.0729 2.47968 34.75L0.667175 34.25V33.0625L21.313 26.1042L22.5213 27.2917L23.5838 37.625V38.5834C24.7088 36.349 26.1672 34.2917 27.9588 32.4167C29.7609 30.5313 31.7609 28.9896 33.9588 27.7917C36.1672 26.5834 38.3547 25.9792 40.5213 25.9792C43.5474 25.9792 45.8599 26.8229 47.4588 28.5C49.0682 30.1823 49.8755 32.3021 49.8755 34.8542C49.8755 37.5781 49.0891 39.6823 47.5213 41.1667C45.9641 42.6406 44.1099 43.375 41.9588 43.375C38.5943 43.375 35.6307 41.6979 33.063 38.3334L32.8338 38.1042C32.0266 36.9792 31.1047 36.3646 30.063 36.25C29.0318 36.125 28.0734 36.625 27.188 37.75C26.3963 38.4584 25.7349 39.3125 25.2088 40.3125C24.6932 41.3125 24.1932 42.4584 23.7088 43.75V77.2292C23.7088 80.4271 25.1099 82.4271 27.9172 83.2292L31.7505 84.2917V85.5H0.667175Z" fill="black"/>
<path d="M88.5051 25.9792C93.6978 25.9792 98.1353 27.0417 101.818 29.1667C105.495 31.2813 108.318 34.1563 110.276 37.7917C112.245 41.4323 113.234 45.5781 113.234 50.2292C113.234 51.1042 113.193 52 113.109 52.9167C113.026 53.8334 112.864 54.6563 112.63 55.375H76.8593C76.9426 64.0156 78.4843 70.2396 81.4843 74.0417C84.4843 77.849 88.9426 79.75 94.8593 79.75C98.8593 79.75 102.094 79.1146 104.568 77.8334C107.052 76.5417 109.38 74.6615 111.547 72.1875L112.734 73.25C110.26 77.6563 106.963 81.099 102.838 83.5834C98.7238 86.0521 93.7863 87.2917 88.0259 87.2917C82.3436 87.2917 77.302 86.0729 72.9009 83.6459C68.4947 81.2031 65.052 77.7031 62.5676 73.1459C60.0936 68.5781 58.8593 63.1354 58.8593 56.8125C58.8593 50.2604 60.2968 44.6823 63.1718 40.0834C66.0572 35.4896 69.7603 31.9896 74.2759 29.5834C78.802 27.1823 83.5468 25.9792 88.5051 25.9792ZM88.1509 28.375C85.828 28.375 83.8436 29.0781 82.1926 30.4792C80.552 31.8854 79.2759 34.3646 78.3593 37.9167C77.4426 41.474 76.9426 46.4948 76.8593 52.9792H97.3801C98.1822 44.2604 97.8645 37.9792 96.4218 34.1459C94.9738 30.3021 92.2186 28.375 88.1509 28.375Z" fill="black"/>
<path d="M124.262 85.5V84.2917L125.824 83.9375C127.335 83.5365 128.533 82.8333 129.408 81.8333C130.293 80.8333 130.741 79.5365 130.741 77.9375C130.741 74.9792 130.762 72.0417 130.804 69.125C130.845 66.2083 130.866 63.2656 130.866 60.2917V30.1875H124.137V28.8542L126.783 28.375C128.377 28.224 129.538 27.6667 130.262 26.7083C130.981 25.7396 131.502 24.4167 131.824 22.75C132.616 19.625 133.788 16.8854 135.345 14.5208C136.913 12.1615 138.699 9.97917 140.699 7.97917C143.741 5.10417 146.955 3.09375 150.345 1.9375C153.746 0.770833 157.085 0.1875 160.366 0.1875C163.574 0.1875 166.496 0.848959 169.137 2.16667C171.772 3.48958 173.095 5.66667 173.095 8.70833C173.095 10.8646 172.455 12.5625 171.179 13.8125C169.897 15.0521 168.101 15.6667 165.783 15.6667C163.851 15.6667 162.085 15.1458 160.491 14.1042C158.892 13.0625 157.335 11.224 155.824 8.58333L154.137 6.54167C153.262 5.41667 152.377 4.875 151.491 4.91667C150.616 4.95833 149.976 5.61979 149.574 6.89583C149.017 9.70313 148.595 12.9896 148.304 16.75C148.022 20.5 147.887 24.1771 147.887 27.7708H161.345V30.1875H147.887V77.7083C147.887 80.7396 149.491 82.6979 152.699 83.5833L155.699 84.2917V85.5H124.262Z" fill="black"/>
<path d="M170.321 85.5V84.2917L171.779 83.8125C174.654 82.8542 176.091 80.8542 176.091 77.8125V13.625C176.091 12.0313 175.769 10.8125 175.133 9.97917C174.492 9.13542 173.373 8.51042 171.779 8.10417L170.216 7.75V6.54167L192.175 1.375L193.612 2.45833L193.133 19.25V60.2917C193.133 63.2656 193.154 66.2083 193.196 69.125C193.237 72.0417 193.258 74.9375 193.258 77.8125C193.258 79.4271 193.576 80.7292 194.216 81.7292C194.852 82.7292 195.93 83.4688 197.446 83.9375L199.008 84.2917V85.5H170.321Z" fill="black"/>
<path d="M239.207 25.9792C244.4 25.9792 248.837 27.0417 252.519 29.1667C256.196 31.2813 259.019 34.1563 260.978 37.7917C262.946 41.4323 263.936 45.5781 263.936 50.2292C263.936 51.1042 263.894 52 263.811 52.9167C263.728 53.8334 263.566 54.6563 263.332 55.375H227.561C227.644 64.0156 229.186 70.2396 232.186 74.0417C235.186 77.849 239.644 79.75 245.561 79.75C249.561 79.75 252.795 79.1146 255.269 77.8334C257.754 76.5417 260.082 74.6615 262.248 72.1875L263.436 73.25C260.962 77.6563 257.665 81.099 253.54 83.5834C249.426 86.0521 244.488 87.2917 238.728 87.2917C233.045 87.2917 228.004 86.0729 223.603 83.6459C219.196 81.2031 215.754 77.7031 213.269 73.1459C210.795 68.5781 209.561 63.1354 209.561 56.8125C209.561 50.2604 210.998 44.6823 213.873 40.0834C216.759 35.4896 220.462 31.9896 224.978 29.5834C229.504 27.1823 234.248 25.9792 239.207 25.9792ZM238.853 28.375C236.53 28.375 234.545 29.0781 232.894 30.4792C231.254 31.8854 229.978 34.3646 229.061 37.9167C228.144 41.474 227.644 46.4948 227.561 52.9792H248.082C248.884 44.2604 248.566 37.9792 247.123 34.1459C245.676 30.3021 242.92 28.375 238.853 28.375Z" fill="black"/>
<path d="M304.484 87.2917C299.037 87.2917 294.094 86.1146 289.651 83.7709C285.219 81.4115 281.698 77.974 279.089 73.4584C276.49 68.9323 275.193 63.3854 275.193 56.8125C275.193 50.3438 276.609 44.8073 279.443 40.2084C282.287 35.599 286.094 32.0781 290.859 29.6459C295.62 27.2031 300.844 25.9792 306.526 25.9792C311.162 25.9792 315.078 26.7448 318.276 28.2709C321.469 29.7865 323.906 31.7656 325.589 34.2084C327.266 36.6406 328.109 39.1771 328.109 41.8125C328.109 44.0625 327.427 45.8073 326.068 47.0417C324.719 48.2813 322.964 48.8959 320.797 48.8959C318.474 48.8959 316.594 48.0573 315.151 46.375C313.719 44.6979 312.88 42.4948 312.63 39.7709C312.557 38.0209 312.599 36.5313 312.755 35.2917C312.922 34.0417 312.922 32.7813 312.755 31.5C312.432 30.1406 311.932 29.2448 311.255 28.8125C310.573 28.3698 309.636 28.1459 308.443 28.1459C303.552 28.1459 299.766 30.2656 297.089 34.5C294.406 38.7396 293.068 45.4948 293.068 54.7709C293.068 62.8542 294.568 69.0417 297.568 73.3334C300.568 77.6146 305.193 79.75 311.443 79.75C315.193 79.75 318.224 79.0729 320.547 77.7084C322.88 76.349 325.12 74.3073 327.276 71.5834L328.484 72.5417C326.484 77.2656 323.401 80.9063 319.234 83.4584C315.078 86.0104 310.162 87.2917 304.484 87.2917Z" fill="black"/>
<path d="M361.598 87.2917C356.473 87.2917 352.484 86.0104 349.64 83.4584C346.807 80.9063 345.39 76.8281 345.39 71.2292V30.1875H337.119V28.9792L339.994 28.5C342.463 27.9479 344.603 27.1459 346.411 26.1042C348.213 25.0625 349.994 23.6615 351.744 21.8959L361.598 10.9792H362.786L362.432 27.7709H375.869V30.1875H362.307V73.375C362.307 76.1823 362.921 78.3073 364.161 79.75C365.411 81.1823 366.994 81.8959 368.911 81.8959C370.588 81.8959 372.067 81.4792 373.348 80.6459C374.624 79.8021 375.9 78.6615 377.182 77.2292L378.39 78.4167C376.791 81.1406 374.588 83.3021 371.786 84.8959C368.994 86.4896 365.598 87.2917 361.598 87.2917Z" fill="black"/>
</svg>
