<svg xmlns="http://www.w3.org/2000/svg" xmlns:xlink="http://www.w3.org/1999/xlink" width="768" zoomAndPan="magnify" viewBox="0 0 576 767.999994" height="1024" preserveAspectRatio="xMidYMid meet" version="1.0"><defs><clipPath id="d98cc655ed"><path d="M 115.203125 153.601562 L 460.949219 153.601562 L 460.949219 614.101562 L 115.203125 614.101562 Z M 115.203125 153.601562 " clip-rule="nonzero"/></clipPath><clipPath id="fa3e44d0c5"><path d="M 146.308594 153.601562 L 429.6875 153.601562 C 446.867188 153.601562 460.796875 167.527344 460.796875 184.707031 L 460.796875 583.285156 C 460.796875 600.464844 446.867188 614.394531 429.6875 614.394531 L 146.308594 614.394531 C 129.128906 614.394531 115.203125 600.464844 115.203125 583.285156 L 115.203125 184.707031 C 115.203125 167.527344 129.128906 153.601562 146.308594 153.601562 Z M 146.308594 153.601562 " clip-rule="nonzero"/></clipPath></defs><g clip-path="url(#d98cc655ed)"><g clip-path="url(#fa3e44d0c5)"><path stroke-linecap="butt" transform="matrix(0.75, 0, 0, 0.75, 115.201468, 153.600012)" fill="none" stroke-linejoin="miter" d="M 41.47617 0.0020668 L 419.31473 0.0020668 C 442.220982 0.0020668 460.793899 18.569776 460.793899 41.476027 L 460.793899 572.913553 C 460.793899 595.819805 442.220982 614.392722 419.31473 614.392722 L 41.47617 614.392722 C 18.569919 614.392722 0.00220967 595.819805 0.00220967 572.913553 L 0.00220967 41.476027 C 0.00220967 18.569776 18.569919 0.0020668 41.47617 0.0020668 Z M 41.47617 0.0020668 " stroke="#ffffff" stroke-width="20" stroke-opacity="1" stroke-miterlimit="4"/></g></g></svg>