<svg xmlns="http://www.w3.org/2000/svg" xmlns:xlink="http://www.w3.org/1999/xlink" width="768" zoomAndPan="magnify" viewBox="0 0 576 767.999994" height="1024" preserveAspectRatio="xMidYMid meet" version="1.0"><defs><clipPath id="5706595998"><path d="M 114.5 238.46875 L 461.75 238.46875 L 461.75 635.21875 L 114.5 635.21875 Z M 114.5 238.46875 " clip-rule="nonzero"/></clipPath><clipPath id="ce9da9d7ff"><path d="M 145.605469 238.46875 L 430.382812 238.46875 C 447.5625 238.46875 461.492188 252.398438 461.492188 269.578125 L 461.492188 604.472656 C 461.492188 621.652344 447.5625 635.578125 430.382812 635.578125 L 145.605469 635.578125 C 128.425781 635.578125 114.5 621.652344 114.5 604.472656 L 114.5 269.578125 C 114.5 252.398438 128.425781 238.46875 145.605469 238.46875 Z M 145.605469 238.46875 " clip-rule="nonzero"/></clipPath></defs><g clip-path="url(#5706595998)"><g clip-path="url(#ce9da9d7ff)"><path stroke-linecap="butt" transform="matrix(0.75, 0, 0, 0.75, 114.498124, 238.470447)" fill="none" stroke-linejoin="miter" d="M 41.476459 -0.0022632 L 421.179579 -0.0022632 C 444.085829 -0.0022632 462.658745 18.570653 462.658745 41.476903 L 462.658745 488.002938 C 462.658745 510.909188 444.085829 529.476896 421.179579 529.476896 L 41.476459 529.476896 C 18.57021 529.476896 0.00250162 510.909188 0.00250162 488.002938 L 0.00250162 41.476903 C 0.00250162 18.570653 18.57021 -0.0022632 41.476459 -0.0022632 Z M 41.476459 -0.0022632 " stroke="#c8b288" stroke-width="20" stroke-opacity="1" stroke-miterlimit="4"/></g></g></svg>